<svg width="1280" height="720" viewBox="0 0 1280 720" xmlns="http://www.w3.org/2000/svg">
  <defs>
    <linearGradient id="paper" x1="0" y1="0" x2="0" y2="1">
      <stop offset="0%" stop-color="#f7f4e8"/>
      <stop offset="100%" stop-color="#ece6d3"/>
    </linearGradient>
  </defs>
  <rect width="1280" height="720" fill="#c8c2a7"/>
  <rect x="70" y="40" width="1140" height="640" rx="14" fill="url(#paper)" stroke="#6e7750" stroke-width="4"/>
  <rect x="92" y="72" width="1096" height="70" fill="#8d9966"/>
  <text x="122" y="117" fill="#fffbe9" font-family="Trebuchet MS" font-size="34" font-weight="700">OLIVE NOTEBOOK</text>
  <rect x="92" y="158" width="210" height="494" fill="#d9d2b7" stroke="#8c845f"/>
  <text x="114" y="198" fill="#5e6a43" font-family="Tahoma" font-size="22" font-weight="700">SECTIONS</text>
  <text x="114" y="238" fill="#5e6a43" font-family="Tahoma" font-size="18">- 기술</text>
  <text x="114" y="272" fill="#5e6a43" font-family="Tahoma" font-size="18">- 생각</text>
  <text x="114" y="306" fill="#5e6a43" font-family="Tahoma" font-size="18">- 일상</text>
  <text x="114" y="340" fill="#5e6a43" font-family="Tahoma" font-size="18">- 픽셀아트</text>
  <rect x="320" y="158" width="868" height="494" fill="#fffdf4" stroke="#b6ad85"/>
  <line x1="360" y1="215" x2="1148" y2="215" stroke="#d6ceb0"/>
  <line x1="360" y1="255" x2="1148" y2="255" stroke="#d6ceb0"/>
  <line x1="360" y1="295" x2="1148" y2="295" stroke="#d6ceb0"/>
  <line x1="360" y1="335" x2="1148" y2="335" stroke="#d6ceb0"/>
  <text x="352" y="200" fill="#4f5b37" font-family="Georgia" font-size="44" font-weight="700">오늘의 기록</text>
  <text x="352" y="246" fill="#5e6a43" font-family="Georgia" font-size="24">개발 메모와 일상 로그를 같은 톤으로 정리</text>
  <rect x="352" y="376" width="240" height="56" rx="8" fill="#6f7d4e"/>
  <text x="394" y="412" fill="#fbf8ee" font-family="Tahoma" font-size="24" font-weight="700">READ POSTS</text>
</svg>
