<svg width="1280" height="720" viewBox="0 0 1280 720" xmlns="http://www.w3.org/2000/svg">
  <rect width="1280" height="720" fill="#d9ecd8"/>
  <rect x="50" y="45" width="1180" height="630" fill="#f4fbf3" stroke="#5b8f65" stroke-width="3"/>
  <rect x="50" y="45" width="1180" height="78" fill="#6ea878"/>
  <text x="84" y="94" fill="#f4fff4" font-family="Verdana" font-size="36" font-weight="700">RETRO PORTAL BLOG</text>
  <rect x="72" y="140" width="220" height="512" fill="#e4f3e3" stroke="#7ca483"/>
  <text x="95" y="180" fill="#396141" font-family="Tahoma" font-size="24" font-weight="700">MENU</text>
  <text x="95" y="220" fill="#396141" font-family="Tahoma" font-size="18">Posts</text>
  <text x="95" y="252" fill="#396141" font-family="Tahoma" font-size="18">Tags</text>
  <text x="95" y="284" fill="#396141" font-family="Tahoma" font-size="18">Categories</text>
  <text x="95" y="316" fill="#396141" font-family="Tahoma" font-size="18">RSS</text>
  <rect x="312" y="140" width="590" height="512" fill="#ffffff" stroke="#7ca483"/>
  <text x="336" y="182" fill="#2d5836" font-family="Trebuchet MS" font-size="34" font-weight="700">최근 글</text>
  <rect x="336" y="208" width="542" height="84" fill="#edf7ec" stroke="#b6d2b9"/>
  <rect x="336" y="304" width="542" height="84" fill="#edf7ec" stroke="#b6d2b9"/>
  <rect x="336" y="400" width="542" height="84" fill="#edf7ec" stroke="#b6d2b9"/>
  <rect x="336" y="496" width="542" height="84" fill="#edf7ec" stroke="#b6d2b9"/>
  <rect x="918" y="140" width="288" height="248" fill="#e4f3e3" stroke="#7ca483"/>
  <text x="940" y="180" fill="#396141" font-family="Tahoma" font-size="24" font-weight="700">카테고리</text>
  <text x="940" y="220" fill="#396141" font-family="Tahoma" font-size="17">기술 / 생각</text>
  <text x="940" y="248" fill="#396141" font-family="Tahoma" font-size="17">일상 / 픽셀아트</text>
  <rect x="918" y="404" width="288" height="248" fill="#e4f3e3" stroke="#7ca483"/>
  <text x="940" y="444" fill="#396141" font-family="Tahoma" font-size="24" font-weight="700">태그 클라우드</text>
</svg>
